<svg t="1697075202595" class="icon" viewBox="0 0 1024 1024" version="1.1" xmlns="http://www.w3.org/2000/svg" p-id="994" width="16" height="16"><path d="M479.136744 726.325581v-238.139534c0-19.527442 16.193488-35.72093 35.72093-35.720931s35.72093 16.193488 35.720931 35.720931v238.139534c0 19.527442-16.193488 35.72093-35.720931 35.720931s-35.72093-16.193488-35.72093-35.720931z" p-id="995"></path><path d="M392.930233 642.976744c-19.527442 0-35.72093-16.193488-35.720931-35.72093s16.193488-35.72093 35.720931-35.72093h238.139534c19.527442 0 35.72093 16.193488 35.720931 35.72093s-16.193488 35.72093-35.720931 35.72093h-238.139534z" p-id="996"></path><path d="M273.860465 1024C63.821395 1024 0 960.178605 0 750.139535v-476.27907C0 63.821395 63.821395 0 273.860465 0h71.441861c83.348837 0 109.544186 27.147907 142.883721 71.44186l71.44186 95.255814c15.717209 20.956279 18.098605 23.813953 47.627907 23.813954h142.883721c210.03907 0 273.860465 63.821395 273.860465 273.860465v285.767442c0 210.03907-63.821395 273.860465-273.860465 273.860465h-476.27907zM71.44186 273.860465v476.27907c0 170.031628 32.386977 202.418605 202.418605 202.418605h476.27907c170.031628 0 202.418605-32.386977 202.418605-202.418605v-285.767442c0-170.031628-32.386977-202.418605-202.418605-202.418605h-142.883721c-60.963721 0-80.967442-20.956279-104.781395-52.390697l-71.441861-95.255814c-24.766512-32.863256-31.910698-42.865116-85.730232-42.865117h-71.441861c-170.031628 0-202.418605 32.386977-202.418605 202.418605z" p-id="997"></path></svg>